# xmcd CD database file
#
# Track frame offsets:
#	150
#	18970
#	34060
#	49986
#	69632
#	85195
#	107340
#	123831
#	147720
#	164977
#
# Disc length: 2503 seconds
#
# Revision: 0
# Processed by: cddbd v1.5.2PL0 Copyright (c) Steve Scherf et al.
# Submitted via: CDex 1.70beta2
#
DISCID=8b09c50a
DTITLE=I Draw Slow - Redhills
DYEAR=2013
DGENRE=Country
TTITLE0=Mama Don't Cry
TTITLE1=Goldmine
TTITLE2=Honeymoon
TTITLE3=Hesitation Waltz
TTITLE4=ingdom
TTITLE5=Goodbye Beulahland
TTITLE6=Buffalo Hunt
TTITLE7=Cry Help
TTITLE8=Low Down Girl Like Me
TTITLE9=Swans
EXTD=YEAR: 2013
EXTT0=
EXTT1=
EXTT2=
EXTT3=
EXTT4=
EXTT5=
EXTT6=
EXTT7=
EXTT8=
EXTT9=
PLAYORDER=
